<svg id="Layer_1" data-name="Layer 1" xmlns="http://www.w3.org/2000/svg" viewBox="0 0 2151 920"><defs><style>.cls-1,.cls-2{fill:#1c1c1c;}.cls-2{font-size:157.22px;font-family:Ruda-Black, Ruda;font-weight:800;}</style></defs><path class="cls-1" d="M1920.05,201.76l-5.85,132.57c-18.14-13.54-54.42-22.57-96-22.57-36.86,0-50.31,5.08-50.31,18.05,110.58,0,165,34.42,165,106.06,0,92.51-53.24,124.11-205.36,124.11-46.81,0-104.13-6-167.32-15.56L1569,407.66c21.65,14.67,64.36,24.26,109.41,24.26,36.86,0,52.66-4.51,52.66-19.18-114.09,0-170.26-32.72-170.26-101,0-92.51,53.24-124.1,205.36-124.1A858.89,858.89,0,0,1,1920.05,201.76Z"/><path class="cls-1" d="M1536.54,201.76l-5.85,132.57c-18.13-13.54-54.41-22.57-96-22.57-36.86,0-50.32,5.08-50.32,18.05,110.58,0,165,34.42,165,106.06,0,92.51-53.25,124.11-205.37,124.11-46.8,0-104.12-6-167.31-15.56l8.76-136.76c21.65,14.67,64.36,24.26,109.41,24.26,36.86,0,52.65-4.51,52.65-19.18-114.08,0-170.25-32.72-170.25-101,0-92.51,53.24-124.1,205.36-124.1A858.7,858.7,0,0,1,1536.54,201.76Z"/><path class="cls-1" d="M1160.14,325c0,18-2.25,42.8-5.07,51.81H959.69c2.81,22,23.09,28.71,74.32,28.71,39.42,0,68.14-3.94,106.42-13.51l5.63,153.15c-41.66,9-88.4,14.08-140.76,14.08-172.3,0-243.25-55.18-243.25-188.06,0-127.26,64.76-183.56,210.59-183.56C1101,187.66,1160.14,231,1160.14,325ZM958,332.93h47.3c-.56-36-5.63-46.17-23.65-46.17S958.56,296.89,958,332.93Z"/><path class="cls-1" d="M533.29,187.66V321.48c-1.6,55.08,41.65,87.33,85.65,113.38-31.71,22.55-113.36-54.75-131.49-73.76l-96.78,98.7c27.78,43.14,77.28,80,124.53,98.89a215.17,215.17,0,0,0,159.58-.59c49.81-20.4,66.59-67.35,66.93-118.47v-252Z"/><path class="cls-1" d="M476.44,311.92c-34.59,0-61.85-4.43-81.13-13.16,18.77-7.55,33.95-20.07,46.57-31.73,2.23-2.06,4.44-4.19,6.58-6.33,10.62-10.62,16.7-18.21,19.72-24.59,4.9-10.41,1.18-17.35-2.81-21.34l-4.24-4.24-4.25,4.24c-24.45,24.46-46.86,40.61-66.67,48.06,7.94-18.6,9.81-38.19,10.49-55.36.12-3,.18-6.1.18-9.12,0-15-1.06-24.69-3.45-31.34-3.89-10.82-11.43-13.1-17.07-13.1h-6v6c0,36.83-5,65.36-14.92,84.78l-.25.48a82.71,82.71,0,0,0-7.81-20.26c-7.12-12.94-17-25.8-29.45-38.22-14.61-14.62-31.28-29.13-44.11-16.31l-4.25,4.25,4.25,4.24c20.48,20.48,41.46,44.5,47.63,70.82a81.62,81.62,0,0,0-18.53-8c-14.19-4.12-30.28-6.21-47.84-6.21-20.67,0-42.73,1.52-42.73,19.66v6h6c29,0,60.79,2.15,83.77,16.4A81.6,81.6,0,0,0,287.35,285c-12.94,7.12-25.8,17-38.22,29.44C234.51,329,220,345.71,232.82,358.54l4.25,4.24,4.24-4.24c20.48-20.48,44.5-41.47,70.82-47.64a81.81,81.81,0,0,0-8,18.53c-4.12,14.19-6.21,30.29-6.21,47.85,0,20.67,1.52,42.72,19.66,42.72h6v-6c0-27.52,1.94-57.63,14.36-80.28,7.58,18.38,19.91,33.29,31.39,45.72,2.05,2.22,4.17,4.43,6.32,6.58,10.63,10.62,18.21,16.7,24.6,19.72a22.1,22.1,0,0,0,9.44,2.34,16.57,16.57,0,0,0,11.89-5.15l4.25-4.24-4.25-4.25C397.12,370,381,347.58,373.52,327.77c18.61,7.94,38.19,9.81,55.36,10.49,3,.12,6.1.18,9.13.18,15,0,24.69-1.06,31.33-3.45,10.83-3.89,13.1-11.43,13.1-17.07v-6Z"/><text class="cls-2" transform="translate(740.58 729.45)">Media designer</text></svg>